<?xml version="1.0" encoding="utf-8"?>
<!-- Generator: Adobe Illustrator 24.3.0, SVG Export Plug-In . SVG Version: 6.00 Build 0)  -->
<svg version="1.1" id="Layer_1" xmlns="http://www.w3.org/2000/svg" xmlns:xlink="http://www.w3.org/1999/xlink" x="0px" y="0px"
	 viewBox="0 0 283.46 283.46" style="enable-background:new 0 0 283.46 283.46;" xml:space="preserve">
<style type="text/css">
	.st0{fill:#A6D5FA;}
	.st1{fill:#90CAF9;}
	.st2{fill:none;stroke:#FFFFFF;stroke-width:10;stroke-linecap:square;stroke-miterlimit:10;}
	.st3{opacity:0.15;fill:none;stroke:#808080;stroke-width:10;stroke-linecap:square;stroke-miterlimit:10;}
	.st4{fill:#B1DCEF;}
	.st5{fill:#90CFF0;}
	.st6{fill:#F37C0F;}
	.st7{fill:none;stroke:#FE9712;stroke-width:11;stroke-linecap:round;stroke-miterlimit:10;}
	.st8{fill:#327C36;}
	.st9{fill:none;stroke:#459E49;stroke-width:11;stroke-linecap:round;stroke-miterlimit:10;}
	.st10{fill:#A6A8AB;}
	.st11{fill:none;stroke:#D0D2D3;stroke-width:11;stroke-linecap:round;stroke-miterlimit:10;}
	.st12{opacity:0.32;fill:#231F20;}
	.st13{fill:#3B8893;}
	.st14{fill:none;stroke:#4FA9B5;stroke-width:11;stroke-linecap:round;stroke-miterlimit:10;}
	.st15{fill:#565253;}
	.st16{fill:none;stroke:#737374;stroke-width:10;stroke-linecap:round;stroke-miterlimit:10;}
	.st17{fill:#647E81;}
	.st18{fill:none;stroke:#84A0A3;stroke-width:11;stroke-linecap:round;stroke-miterlimit:10;}
	.st19{fill:none;stroke:#84A0A3;stroke-width:10;stroke-linecap:round;stroke-miterlimit:10;}
	.st20{fill:#535353;}
	.st21{fill:none;stroke:#737373;stroke-width:10;stroke-linecap:round;stroke-miterlimit:10;}
	.st22{fill:#777777;}
	.st23{fill:none;stroke:#989898;stroke-width:11;stroke-linecap:round;stroke-miterlimit:10;}
	.st24{fill:none;stroke:#989898;stroke-width:10;stroke-linecap:round;stroke-miterlimit:10;}
	.st25{fill:#C32B2B;}
	.st26{fill:none;stroke:#E44C4C;stroke-width:11;stroke-linecap:round;stroke-miterlimit:10;}
	.st27{fill:none;stroke:#E44C4C;stroke-width:10;stroke-linecap:round;stroke-miterlimit:10;}
	.st28{fill:#66757D;}
	.st29{fill:none;stroke:#8C9CA3;stroke-width:11;stroke-linecap:round;stroke-miterlimit:10;}
	.st30{fill:none;stroke:#8C9CA3;stroke-width:10;stroke-linecap:round;stroke-miterlimit:10;}
	.st31{fill:#5E5F60;}
	.st32{opacity:0.7;}
	.st33{fill:#FFFFFF;}
	.st34{fill:#8C8E8F;}
</style>
<g>
	<rect x="65.59" y="40.77" class="st0" width="155.84" height="193"/>
	<polygon class="st1" points="221.43,233.77 65.59,233.77 221.43,40.77 	"/>
	<line class="st2" x1="143.51" y1="40.77" x2="143.51" y2="233.77"/>
	<g>
		<rect x="143.51" y="40.77" class="st2" width="77.92" height="197.84"/>
		<rect x="65.59" y="40.77" class="st2" width="77.92" height="197.84"/>
	</g>
	<rect x="55.68" y="30.54" class="st3" width="175.76" height="218.25"/>
</g>
<g>
	<circle class="st15" cx="16.96" cy="20.49" r="12"/>
	<circle class="st15" cx="270.05" cy="20.49" r="12"/>
	<line class="st16" x1="16.96" y1="20.49" x2="270.05" y2="20.49"/>
</g>
<g>
	<path class="st28" d="M53.88,25.47v249.5c-1-4.22-6.35-7.43-12.81-7.43s-11.8,3.21-12.8,7.43V27.46c1.32,3.94,6.47,6.87,12.63,6.87
		C48.07,34.33,53.88,30.37,53.88,25.47z"/>
	<path class="st28" d="M79.49,25.47v249.5c-1-4.22-6.35-7.43-12.81-7.43s-11.8,3.21-12.8,7.43V27.46c1.32,3.94,6.47,6.87,12.63,6.87
		C73.68,34.33,79.49,30.37,79.49,25.47z"/>
	<path class="st28" d="M105.09,25.47v249.5c-1-4.22-6.35-7.43-12.81-7.43s-11.8,3.21-12.8,7.43V27.46
		c1.32,3.94,6.47,6.87,12.63,6.87C99.29,34.33,105.09,30.37,105.09,25.47z"/>
	<path class="st28" d="M207.52,25.47v249.5c-1-4.22-6.35-7.43-12.81-7.43c-6.45,0-11.8,3.21-12.8,7.43V27.46
		c1.32,3.94,6.47,6.87,12.63,6.87C201.72,34.33,207.52,30.37,207.52,25.47z"/>
	<path class="st28" d="M233.13,25.47v249.5c-1-4.22-6.35-7.43-12.81-7.43s-11.8,3.21-12.8,7.43V27.46
		c1.32,3.94,6.47,6.87,12.63,6.87C227.32,34.33,233.13,30.37,233.13,25.47z"/>
	<path class="st28" d="M258.05,25.47v249.5c-1-4.22-6.35-7.43-12.81-7.43c-6.45,0-11.8,3.21-12.8,7.43V27.46
		c1.32,3.94,6.47,6.87,12.63,6.87C252.24,34.33,258.05,30.37,258.05,25.47z"/>
	<line class="st29" x1="28.27" y1="14.37" x2="28.27" y2="270.38"/>
	<line class="st29" x1="53.88" y1="14.37" x2="53.88" y2="270.38"/>
	<line class="st29" x1="79.49" y1="14.37" x2="79.49" y2="270.38"/>
	<line class="st30" x1="105.09" y1="14.37" x2="105.09" y2="270.38"/>
	<line class="st30" x1="181.92" y1="14.37" x2="181.92" y2="270.38"/>
	<line class="st30" x1="207.53" y1="14.37" x2="207.53" y2="270.38"/>
	<line class="st30" x1="233.14" y1="14.37" x2="233.14" y2="270.38"/>
	<line class="st30" x1="258.75" y1="14.37" x2="258.75" y2="270.38"/>
</g>
<g>
	<g>
		<g>
			<g>
				<path class="st31" d="M206.01,157.09l-13.9-10.5l-0.48-0.36l-2.12-1.61c-2.1-1.6-2.1-4.19,0-5.78l2.12-1.58l0.48-0.36
					l13.9-10.52c2.1-1.58,2.75-4.74,1.42-7.03l-13.46-23.32c-0.12-0.2-0.26-0.41-0.41-0.59c-1.05-1.33-2.73-2.09-4.4-2.09
					c-0.67,0-1.36,0.13-2,0.4l-16.04,6.79h-0.01l-0.55,0.24l-2.46,1.03c-0.56,0.25-1.1,0.35-1.63,0.35c-0.88,0-1.64-0.31-2.24-0.87
					c-0.15-0.15-0.29-0.3-0.41-0.46c-0.25-0.34-0.45-0.74-0.58-1.2c-0.06-0.22-0.11-0.46-0.15-0.72l-0.33-2.64l-0.07-0.6
					l-2.14-17.28c-0.33-2.61-2.74-4.75-5.39-4.75h-26.93c-2.62,0-5.05,2.14-5.37,4.75l-1.91,15.31l-0.25,1.97l-0.01,0.1l-0.06,0.5
					l-0.33,2.64c-0.24,2.01-1.63,3.24-3.36,3.24c-0.51,0-1.08-0.11-1.64-0.35l-2.44-1.04l-0.56-0.24l-16.05-6.78
					c-0.63-0.27-1.33-0.4-2.01-0.4c-0.95,0-1.92,0.25-2.75,0.71c-0.21,0.13-0.41,0.25-0.6,0.39c-0.01,0-0.01,0-0.01,0
					c-0.19,0.15-0.37,0.3-0.55,0.45c-0.17,0.17-0.33,0.35-0.48,0.55c-0.15,0.18-0.29,0.39-0.41,0.59l-2.02,3.51l-0.88,1.52
					l-0.81,1.41l-0.49,0.86l-9.25,16.02c-1.32,2.29-0.67,5.45,1.42,7.03l13.89,10.51h0.01v0.01l0.48,0.35l2.13,1.6
					c2.1,1.6,2.1,4.19,0,5.78l-2.13,1.61l-0.48,0.35v0.01h-0.01l-13.89,10.5c-2.1,1.6-2.74,4.75-1.42,7.03l4.94,8.55v0.01
					l8.52,14.76c0.12,0.2,0.26,0.41,0.41,0.59c0.15,0.19,0.31,0.36,0.48,0.52c0.17,0.17,0.35,0.32,0.55,0.46c0,0,0,0,0.01,0
					c0.17,0.13,0.34,0.25,0.52,0.34c0.86,0.48,1.84,0.75,2.83,0.75c0.69,0,1.38-0.12,2.01-0.4l16.05-6.78l0.56-0.24l2.44-1.03
					c0.56-0.25,1.12-0.35,1.64-0.35c0.97,0,1.85,0.39,2.45,1.08c0.07,0.09,0.14,0.16,0.19,0.25c0.37,0.5,0.63,1.16,0.72,1.91
					l0.33,2.64l0.07,0.61l2.15,17.27c0.32,2.61,2.75,4.76,5.37,4.76h26.93c1,0,1.94-0.3,2.77-0.8c0.1-0.06,0.19-0.13,0.29-0.2
					c1.23-0.88,2.13-2.24,2.32-3.76l1.78-14.38l0.21-1.72l0.15-1.17l0.07-0.6l0.33-2.66c0.06-0.5,0.2-0.96,0.39-1.36
					c0.2-0.4,0.45-0.73,0.75-1.01c0.6-0.56,1.36-0.87,2.24-0.87c0.52,0,1.07,0.11,1.63,0.35l2.46,1.04l0.55,0.22h0.01l16.04,6.78
					c0.64,0.28,1.33,0.4,2,0.4c0.72,0,1.45-0.14,2.11-0.41c0.34-0.13,0.66-0.3,0.96-0.48c0.5-0.32,0.95-0.72,1.33-1.19
					c0.15-0.18,0.29-0.39,0.41-0.59l13.46-23.33C208.77,161.84,208.11,158.68,206.01,157.09z M161.88,160.23
					c-5,5.45-12.18,8.86-20.16,8.86c-15.12,0-27.36-12.25-27.36-27.36c0-15.11,12.25-27.35,27.36-27.35c0.12,0,0.25,0,0.36,0.01
					c14.93,0.18,26.99,12.35,26.99,27.34C169.08,148.86,166.35,155.36,161.88,160.23z"/>
				<g class="st32">
					<path class="st33" d="M155.18,73.62c2.64,0,5.05,2.14,5.39,4.75l2.14,17.28l0.07,0.6l0.33,2.64c0.04,0.26,0.09,0.49,0.15,0.72
						c0.13,0.46,0.33,0.86,0.58,1.2c0.12,0.16,0.26,0.31,0.41,0.46c0.6,0.56,1.36,0.87,2.24,0.87c0.52,0,1.07-0.11,1.63-0.35
						l2.46-1.03l0.55-0.24h0.01l16.04-6.79c0.64-0.27,1.33-0.4,2-0.4c1.67,0,3.35,0.76,4.4,2.09c0.15,0.18,0.29,0.39,0.41,0.59
						l13.46,23.32c1.33,2.29,0.67,5.45-1.42,7.03l-13.9,10.52l-0.48,0.36l-2.12,1.58c-2.1,1.6-2.1,4.19,0,5.78l2.12,1.61l0.48,0.36
						l13.9,10.5c2.1,1.6,2.75,4.75,1.42,7.03l-13.46,23.33c-0.12,0.2-0.26,0.41-0.41,0.59c-0.37,0.47-0.82,0.87-1.33,1.19
						c-0.3,0.18-0.62,0.35-0.96,0.48c-0.66,0.27-1.39,0.41-2.11,0.41c-0.67,0-1.36-0.12-2-0.4l-16.04-6.78h-0.01l-0.55-0.22
						l-2.46-1.04c-0.56-0.25-1.1-0.35-1.63-0.35c-0.88,0-1.64,0.31-2.24,0.87c-0.3,0.28-0.55,0.61-0.75,1.01
						c-0.18,0.4-0.32,0.86-0.39,1.36l-0.33,2.66l-0.07,0.6l-0.15,1.17l-0.21,1.72l-1.78,14.38c-0.19,1.52-1.09,2.88-2.32,3.76
						c-0.1,0.07-0.19,0.14-0.29,0.2c-0.83,0.5-1.78,0.8-2.77,0.8h-26.93c-2.62,0-5.05-2.15-5.37-4.76l-2.15-17.27l-0.07-0.61
						l-0.33-2.64c-0.09-0.75-0.34-1.4-0.72-1.91c-0.05-0.09-0.12-0.16-0.19-0.25c-0.6-0.7-1.48-1.08-2.45-1.08
						c-0.51,0-1.08,0.11-1.64,0.35l-2.44,1.03l-0.56,0.24l-16.05,6.78c-0.63,0.28-1.33,0.4-2.01,0.4c-0.98,0-1.97-0.27-2.83-0.75
						c-0.18-0.1-0.35-0.21-0.52-0.34c-0.01,0-0.01,0-0.01,0c-0.19-0.14-0.37-0.29-0.55-0.46c-0.17-0.16-0.33-0.33-0.48-0.52
						c-0.15-0.18-0.29-0.39-0.41-0.59l-8.52-14.76v-0.01l-4.94-8.55c-1.32-2.28-0.67-5.44,1.42-7.03l13.89-10.5h0.01v-0.01
						l0.48-0.35l2.13-1.61c2.1-1.6,2.1-4.19,0-5.78l-2.13-1.6l-0.48-0.35v-0.01h-0.01l-13.89-10.51c-2.1-1.58-2.74-4.74-1.42-7.03
						l9.25-16.02l0.49-0.86l0.81-1.41l0.88-1.52l2.02-3.51c0.12-0.2,0.26-0.41,0.41-0.59c0.15-0.19,0.31-0.37,0.48-0.55
						c0.17-0.15,0.35-0.3,0.55-0.45c0,0,0,0,0.01,0c0.19-0.14,0.39-0.26,0.6-0.39c0.84-0.46,1.8-0.71,2.75-0.71
						c0.69,0,1.38,0.13,2.01,0.4l16.05,6.78l0.56,0.24l2.44,1.04c0.56,0.25,1.12,0.35,1.64,0.35c1.73,0,3.13-1.23,3.36-3.24
						l0.33-2.64l0.06-0.5l0.01-0.1l0.25-1.97l1.91-15.31c0.32-2.61,2.75-4.75,5.37-4.75H155.18 M141.73,169.09
						c7.98,0,15.16-3.42,20.16-8.86c4.46-4.87,7.19-11.37,7.19-18.5c0-14.99-12.05-27.16-26.99-27.34
						c-0.12-0.01-0.25-0.01-0.36-0.01c-15.12,0-27.36,12.25-27.36,27.35C114.36,156.84,126.61,169.09,141.73,169.09 M155.18,63.62
						h-26.93c-7.65,0-14.37,5.94-15.3,13.53l-1.51,12.13l-11.28-4.76c-1.82-0.77-3.87-1.18-5.9-1.18c-1.97,0-3.93,0.37-5.75,1.09
						h-1.03l-2.72,2.11c-0.34,0.27-0.67,0.54-0.99,0.81l-0.26,0.22l-0.24,0.24c-0.43,0.43-0.84,0.89-1.22,1.37
						c-0.46,0.57-0.88,1.18-1.25,1.83l-2.03,3.52l-0.87,1.51l-0.82,1.42l-0.49,0.86l-9.24,16c-3.81,6.64-2.03,15.42,4.06,20.02
						l9.76,7.39l-9.76,7.38c-6.09,4.63-7.86,13.41-4.05,20.01l3.6,6.23v0l1.34,2.33l8.52,14.76c0.38,0.65,0.8,1.27,1.26,1.84
						c0.41,0.52,0.85,1,1.34,1.47c0.51,0.49,1.04,0.95,1.64,1.38l2.62,1.89h0.85c1.83,0.72,3.78,1.09,5.74,1.09
						c2.1,0,4.1-0.41,5.95-1.2l11.23-4.74l1.51,12.15c0.93,7.58,7.65,13.53,15.3,13.53h26.93c2.76,0,5.51-0.77,7.94-2.24l0.19-0.12
						l0.19-0.12c0.14-0.1,0.39-0.26,0.7-0.49c3.47-2.54,5.76-6.37,6.29-10.54l1.51-12.18l11.26,4.76c1.85,0.79,3.85,1.2,5.92,1.2
						c1.95,0,3.93-0.38,5.74-1.09c0.85-0.33,1.68-0.74,2.53-1.25l0.09-0.06l0.09-0.06c1.43-0.91,2.68-2.03,3.73-3.33
						c0.47-0.58,0.91-1.21,1.29-1.87l13.46-23.34c3.82-6.56,2.06-15.36-4.03-19.99l-9.78-7.39l9.77-7.4
						c6.09-4.6,7.87-13.4,4.04-20.02l-13.45-23.3c-0.38-0.66-0.81-1.29-1.28-1.86c-2.92-3.64-7.46-5.81-12.19-5.81
						c-2.03,0-3.99,0.39-5.85,1.17l-0.03,0.01l-0.03,0.01L172,89.3l-1.51-12.16C169.53,69.54,162.8,63.62,155.18,63.62L155.18,63.62
						z M141.73,159.09c-9.57,0-17.36-7.79-17.36-17.36c0-9.5,7.68-17.25,17.17-17.35l0.04,0l0.39,0c9.44,0.11,17.11,7.9,17.11,17.34
						c0,4.36-1.62,8.53-4.57,11.74C151.19,157.09,146.65,159.09,141.73,159.09L141.73,159.09z"/>
				</g>
			</g>
		</g>
	</g>
	<g>
		<path class="st34" d="M191.64,137.25c-1.06-12.04-6.38-22.88-14.46-30.95c-2.03-2.03-4.24-3.89-6.59-5.55
			c-2.44-1.73-5.05-3.24-7.79-4.51c-6.4-2.98-13.53-4.64-21.05-4.64c-4.99,0-9.82,0.74-14.38,2.09c-0.57,0.18-1.15,0.35-1.7,0.56
			c-0.88,0.29-1.75,0.61-2.61,0.96c-0.28,0.11-0.55,0.21-0.82,0.33c-0.36,0.15-0.74,0.32-1.11,0.49c-0.15,0.07-0.3,0.14-0.45,0.2
			c-0.21,0.11-0.43,0.2-0.65,0.3c-1.47,0.71-2.89,1.49-4.26,2.32c-0.69,0.42-1.36,0.85-2.02,1.3c-0.28,0.19-0.57,0.37-0.84,0.58
			c-1.05,0.73-2.04,1.5-3.02,2.31c-3.73,3.06-6.99,6.66-9.7,10.66c-1.11,1.66-2.14,3.4-3.06,5.19c-0.01,0-0.01,0-0.01,0
			c-0.36,0.74-0.71,1.46-1.06,2.19c-0.32,0.74-0.64,1.49-0.94,2.25c-0.3,0.77-0.58,1.53-0.85,2.3c-0.43,1.26-0.8,2.55-1.13,3.84
			c-0.15,0.64-0.31,1.31-0.45,1.97c-0.25,1.24-0.46,2.51-0.63,3.79c-0.09,0.65-0.16,1.32-0.21,1.98c-0.14,1.48-0.21,2.98-0.21,4.49
			c0,1.52,0.07,3.02,0.21,4.5c0.05,0.63,0.13,1.26,0.2,1.88c0.11,0.85,0.24,1.67,0.37,2.49c0.36,2.07,0.87,4.07,1.47,6.05
			c0.26,0.77,0.51,1.55,0.79,2.32c0.84,2.3,1.85,4.52,3.01,6.65c0.4,0.72,0.79,1.41,1.21,2.1c1.25,2.07,2.66,4.04,4.2,5.89
			c1.01,1.24,2.1,2.42,3.22,3.55c1.13,1.12,2.32,2.22,3.57,3.23c0.97,0.81,1.99,1.58,3.03,2.31c0.93,0.66,1.88,1.28,2.86,1.87
			c0.7,0.43,1.39,0.82,2.11,1.21c0.92,0.5,1.85,0.97,2.8,1.41c1.25,0.59,2.54,1.11,3.84,1.6c0.77,0.29,1.55,0.56,2.32,0.79
			c1.96,0.61,3.98,1.1,6.04,1.47c0.82,0.14,1.65,0.27,2.48,0.39c2.09,0.25,4.23,0.4,6.39,0.4c2.27,0,4.52-0.16,6.7-0.44
			c0.74-0.11,1.46-0.21,2.17-0.34c0.62-0.11,1.23-0.22,1.83-0.36c1.84-0.41,3.62-0.91,5.36-1.49c0.39-0.12,0.78-0.27,1.16-0.41
			c1.16-0.42,2.29-0.88,3.39-1.38c0.12-0.05,0.26-0.11,0.37-0.18c0.02,0,0.03-0.01,0.05-0.02c0.6-0.28,1.19-0.57,1.77-0.86
			c1.06-0.55,2.12-1.12,3.14-1.75v-0.02c0.35-0.2,0.71-0.42,1.06-0.64c0.33-0.21,0.67-0.44,1-0.66c0.29-0.18,0.56-0.37,0.84-0.57
			c0.39-0.28,0.76-0.56,1.15-0.84c0.31-0.24,0.63-0.47,0.94-0.73c0.94-0.75,1.87-1.52,2.76-2.33c0.3-0.27,0.58-0.54,0.88-0.81
			c0.3-0.28,0.58-0.57,0.87-0.85c8.07-8.08,13.39-18.9,14.46-30.94c0.14-1.48,0.2-2.98,0.2-4.5
			C191.84,140.22,191.78,138.73,191.64,137.25z M141.73,166.68c-13.78,0-24.95-11.17-24.95-24.95c0-13.77,11.17-24.94,24.95-24.94
			c0.11,0,0.22,0,0.33,0.01c13.62,0.17,24.61,11.27,24.61,24.93c0,6.5-2.49,12.43-6.56,16.87
			C155.55,163.57,149,166.68,141.73,166.68z"/>
	</g>
</g>
</svg>
