<?xml version="1.0" encoding="utf-8"?>
<!-- Generator: Adobe Illustrator 24.3.0, SVG Export Plug-In . SVG Version: 6.00 Build 0)  -->
<svg version="1.1" id="Layer_1" xmlns="http://www.w3.org/2000/svg" xmlns:xlink="http://www.w3.org/1999/xlink" x="0px" y="0px"
	 viewBox="0 0 283.46 283.46" style="enable-background:new 0 0 283.46 283.46;" xml:space="preserve">
<style type="text/css">
	.st0{fill:#A6D5FA;}
	.st1{fill:#90CAF9;}
	.st2{fill:none;stroke:#FFFFFF;stroke-width:10;stroke-linecap:square;stroke-miterlimit:10;}
	.st3{opacity:0.15;fill:none;stroke:#808080;stroke-width:10;stroke-linecap:square;stroke-miterlimit:10;}
	.st4{fill:#B1DCEF;}
	.st5{fill:#90CFF0;}
	.st6{fill:#F37C0F;}
	.st7{fill:none;stroke:#FE9712;stroke-width:11;stroke-linecap:round;stroke-miterlimit:10;}
	.st8{fill:#327C36;}
	.st9{fill:none;stroke:#459E49;stroke-width:11;stroke-linecap:round;stroke-miterlimit:10;}
	.st10{fill:#A6A8AB;}
	.st11{fill:none;stroke:#D0D2D3;stroke-width:11;stroke-linecap:round;stroke-miterlimit:10;}
	.st12{opacity:0.32;fill:#231F20;}
	.st13{fill:#3B8893;}
	.st14{fill:none;stroke:#4FA9B5;stroke-width:11;stroke-linecap:round;stroke-miterlimit:10;}
	.st15{fill:#565253;}
	.st16{fill:none;stroke:#737374;stroke-width:10;stroke-linecap:round;stroke-miterlimit:10;}
	.st17{fill:#647E81;}
	.st18{fill:none;stroke:#84A0A3;stroke-width:11;stroke-linecap:round;stroke-miterlimit:10;}
	.st19{fill:none;stroke:#84A0A3;stroke-width:10;stroke-linecap:round;stroke-miterlimit:10;}
	.st20{fill:#535353;}
	.st21{fill:none;stroke:#737373;stroke-width:10;stroke-linecap:round;stroke-miterlimit:10;}
	.st22{fill:#777777;}
	.st23{fill:none;stroke:#989898;stroke-width:11;stroke-linecap:round;stroke-miterlimit:10;}
	.st24{fill:none;stroke:#989898;stroke-width:10;stroke-linecap:round;stroke-miterlimit:10;}
	.st25{fill:#C32B2B;}
	.st26{fill:none;stroke:#E44C4C;stroke-width:11;stroke-linecap:round;stroke-miterlimit:10;}
	.st27{fill:none;stroke:#E44C4C;stroke-width:10;stroke-linecap:round;stroke-miterlimit:10;}
	.st28{fill:#66757D;}
	.st29{fill:none;stroke:#8C9CA3;stroke-width:11;stroke-linecap:round;stroke-miterlimit:10;}
	.st30{fill:none;stroke:#8C9CA3;stroke-width:10;stroke-linecap:round;stroke-miterlimit:10;}
	.st31{fill:#5E5F60;}
	.st32{opacity:0.7;}
	.st33{fill:#FFFFFF;}
	.st34{fill:#8C8E8F;}
</style>
<g>
	<rect x="63.81" y="40.77" class="st0" width="155.84" height="193"/>
	<polygon class="st1" points="219.65,233.77 63.81,233.77 219.65,40.77 	"/>
	<line class="st2" x1="141.73" y1="40.77" x2="141.73" y2="233.77"/>
	<g>
		<rect x="141.73" y="40.77" class="st2" width="77.92" height="197.84"/>
		<rect x="63.81" y="40.77" class="st2" width="77.92" height="197.84"/>
	</g>
	<rect x="53.9" y="30.54" class="st3" width="175.76" height="218.25"/>
</g>
<g>
	<circle class="st15" cx="15.19" cy="20.49" r="12"/>
	<circle class="st15" cx="268.28" cy="20.49" r="12"/>
	<line class="st16" x1="15.19" y1="20.49" x2="268.28" y2="20.49"/>
</g>
<g>
	<path class="st28" d="M52.1,25.47v249.5c-1-4.22-6.35-7.43-12.81-7.43s-11.8,3.21-12.8,7.43V27.46c1.32,3.94,6.47,6.87,12.63,6.87
		C46.3,34.33,52.1,30.37,52.1,25.47z"/>
	<path class="st28" d="M77.71,25.47v249.5c-1-4.22-6.35-7.43-12.81-7.43s-11.8,3.21-12.8,7.43V27.46c1.32,3.94,6.47,6.87,12.63,6.87
		C71.9,34.33,77.71,30.37,77.71,25.47z"/>
	<path class="st28" d="M103.32,25.47v249.5c-1-4.22-6.35-7.43-12.81-7.43s-11.8,3.21-12.8,7.43V27.46
		c1.32,3.94,6.47,6.87,12.63,6.87C97.51,34.33,103.32,30.37,103.32,25.47z"/>
	<path class="st28" d="M205.75,25.47v249.5c-1-4.22-6.35-7.43-12.81-7.43c-6.45,0-11.8,3.21-12.8,7.43V27.46
		c1.32,3.94,6.47,6.87,12.63,6.87C199.94,34.33,205.75,30.37,205.75,25.47z"/>
	<path class="st28" d="M231.35,25.47v249.5c-1-4.22-6.35-7.43-12.81-7.43c-6.45,0-11.8,3.21-12.8,7.43V27.46
		c1.32,3.94,6.47,6.87,12.63,6.87C225.55,34.33,231.35,30.37,231.35,25.47z"/>
	<path class="st28" d="M256.27,25.47v249.5c-1-4.22-6.35-7.43-12.81-7.43c-6.45,0-11.8,3.21-12.8,7.43V27.46
		c1.32,3.94,6.47,6.87,12.63,6.87C250.47,34.33,256.27,30.37,256.27,25.47z"/>
	<line class="st29" x1="26.5" y1="14.37" x2="26.5" y2="270.38"/>
	<line class="st29" x1="52.1" y1="14.37" x2="52.1" y2="270.38"/>
	<line class="st29" x1="77.71" y1="14.37" x2="77.71" y2="270.38"/>
	<line class="st30" x1="103.32" y1="14.37" x2="103.32" y2="270.38"/>
	<line class="st30" x1="180.14" y1="14.37" x2="180.14" y2="270.38"/>
	<line class="st30" x1="205.75" y1="14.37" x2="205.75" y2="270.38"/>
	<line class="st30" x1="231.36" y1="14.37" x2="231.36" y2="270.38"/>
	<line class="st30" x1="256.97" y1="14.37" x2="256.97" y2="270.38"/>
</g>
</svg>
