<?xml version="1.0" encoding="utf-8"?>
<!-- Generator: Adobe Illustrator 24.3.0, SVG Export Plug-In . SVG Version: 6.00 Build 0)  -->
<svg version="1.1" id="Layer_1" xmlns="http://www.w3.org/2000/svg" xmlns:xlink="http://www.w3.org/1999/xlink" x="0px" y="0px"
	 viewBox="0 0 283.46 283.46" style="enable-background:new 0 0 283.46 283.46;" xml:space="preserve">
<style type="text/css">
	.st0{fill:#A6D5FA;}
	.st1{fill:#90CAF9;}
	.st2{fill:none;stroke:#FFFFFF;stroke-width:10;stroke-linecap:square;stroke-miterlimit:10;}
	.st3{opacity:0.15;fill:none;stroke:#808080;stroke-width:10;stroke-linecap:square;stroke-miterlimit:10;}
	.st4{fill:#B1DCEF;}
	.st5{fill:#90CFF0;}
	.st6{fill:#F37C0F;}
	.st7{fill:none;stroke:#FE9712;stroke-width:11;stroke-linecap:round;stroke-miterlimit:10;}
	.st8{fill:#327C36;}
	.st9{fill:none;stroke:#459E49;stroke-width:11;stroke-linecap:round;stroke-miterlimit:10;}
	.st10{fill:#A6A8AB;}
	.st11{fill:none;stroke:#D0D2D3;stroke-width:11;stroke-linecap:round;stroke-miterlimit:10;}
	.st12{opacity:0.32;fill:#231F20;}
	.st13{fill:#3B8893;}
	.st14{fill:none;stroke:#4FA9B5;stroke-width:11;stroke-linecap:round;stroke-miterlimit:10;}
	.st15{fill:#565253;}
	.st16{fill:none;stroke:#737374;stroke-width:10;stroke-linecap:round;stroke-miterlimit:10;}
	.st17{fill:#647E81;}
	.st18{fill:none;stroke:#84A0A3;stroke-width:11;stroke-linecap:round;stroke-miterlimit:10;}
	.st19{fill:none;stroke:#84A0A3;stroke-width:10;stroke-linecap:round;stroke-miterlimit:10;}
	.st20{fill:#535353;}
	.st21{fill:none;stroke:#737373;stroke-width:10;stroke-linecap:round;stroke-miterlimit:10;}
	.st22{fill:#777777;}
	.st23{fill:none;stroke:#989898;stroke-width:11;stroke-linecap:round;stroke-miterlimit:10;}
	.st24{fill:none;stroke:#989898;stroke-width:10;stroke-linecap:round;stroke-miterlimit:10;}
	.st25{fill:#C32B2B;}
	.st26{fill:none;stroke:#E44C4C;stroke-width:11;stroke-linecap:round;stroke-miterlimit:10;}
	.st27{fill:none;stroke:#E44C4C;stroke-width:10;stroke-linecap:round;stroke-miterlimit:10;}
	.st28{fill:#66757D;}
	.st29{fill:none;stroke:#8C9CA3;stroke-width:11;stroke-linecap:round;stroke-miterlimit:10;}
	.st30{fill:none;stroke:#8C9CA3;stroke-width:10;stroke-linecap:round;stroke-miterlimit:10;}
	.st31{fill:#5E5F60;}
	.st32{opacity:0.7;}
	.st33{fill:#FFFFFF;}
	.st34{fill:#8C8E8F;}
</style>
<g>
	<rect x="63.81" y="40.77" class="st0" width="155.84" height="193"/>
	<polygon class="st1" points="219.65,233.77 63.81,233.77 219.65,40.77 	"/>
	<line class="st2" x1="141.73" y1="40.77" x2="141.73" y2="233.77"/>
	<g>
		<rect x="141.73" y="40.77" class="st2" width="77.92" height="197.84"/>
		<rect x="63.81" y="40.77" class="st2" width="77.92" height="197.84"/>
	</g>
	<rect x="53.9" y="30.54" class="st3" width="175.76" height="218.25"/>
</g>
<g>
	<circle class="st15" cx="15.19" cy="20.49" r="12"/>
	<circle class="st15" cx="268.28" cy="20.49" r="12"/>
	<line class="st16" x1="15.19" y1="20.49" x2="268.28" y2="20.49"/>
</g>
<g>
	<path class="st28" d="M45.67,25.47v249.5c-0.75-4.22-4.76-7.43-9.59-7.43s-8.84,3.21-9.59,7.43V27.46
		c0.99,3.94,4.85,6.87,9.46,6.87C41.33,34.33,45.67,30.37,45.67,25.47z"/>
	<path class="st28" d="M64.85,25.47v249.5c-0.75-4.22-4.76-7.43-9.59-7.43s-8.84,3.21-9.59,7.43V27.46
		c0.99,3.94,4.85,6.87,9.46,6.87C60.5,34.33,64.85,30.37,64.85,25.47z"/>
	<path class="st28" d="M84.02,25.47v249.5c-0.75-4.22-4.76-7.43-9.59-7.43s-8.84,3.21-9.59,7.43V27.46
		c0.99,3.94,4.85,6.87,9.46,6.87C79.68,34.33,84.02,30.37,84.02,25.47z"/>
	<line class="st29" x1="26.5" y1="14.37" x2="26.5" y2="270.38"/>
	<line class="st29" x1="45.67" y1="14.37" x2="45.67" y2="270.38"/>
	<line class="st29" x1="64.85" y1="14.37" x2="64.85" y2="270.38"/>
	<line class="st29" x1="84.03" y1="14.37" x2="84.03" y2="270.38"/>
</g>
<g>
	<path class="st28" d="M217.84,25.47v249.5c-0.76-4.22-4.85-7.43-9.78-7.43s-9.01,3.21-9.78,7.43V27.46
		c1.01,3.94,4.95,6.87,9.65,6.87C213.4,34.33,217.84,30.37,217.84,25.47z"/>
	<path class="st28" d="M237.4,25.47v249.5c-0.76-4.22-4.85-7.43-9.78-7.43c-4.93,0-9.01,3.21-9.78,7.43V27.46
		c1.01,3.94,4.95,6.87,9.65,6.87C232.96,34.33,237.4,30.37,237.4,25.47z"/>
	<path class="st28" d="M256.96,25.47v249.5c-0.76-4.22-4.85-7.43-9.78-7.43c-4.93,0-9.01,3.21-9.78,7.43V27.46
		c1.01,3.94,4.95,6.87,9.65,6.87C252.53,34.33,256.96,30.37,256.96,25.47z"/>
	<line class="st29" x1="198.28" y1="14.37" x2="198.28" y2="270.38"/>
	<line class="st29" x1="217.84" y1="14.37" x2="217.84" y2="270.38"/>
	<line class="st29" x1="237.4" y1="14.37" x2="237.4" y2="270.38"/>
	<line class="st29" x1="256.96" y1="14.37" x2="256.96" y2="270.38"/>
</g>
</svg>
